<svg xmlns="http://www.w3.org/2000/svg" width="16" height="16" viewBox="0 0 16 16" fill="none">
  <path d="M7.40527 3.02899C7.65392 2.54503 8.34575 2.54503 8.59441 3.02899L9.42549 4.6465C9.85086 5.4744 10.5248 6.14832 11.3527 6.5737L12.9702 7.40478C13.4542 7.65344 13.4542 8.34526 12.9702 8.59392L11.3527 9.425C10.5248 9.85038 9.85086 10.5243 9.42549 11.3522L8.59441 12.9697C8.34575 13.4537 7.65392 13.4537 7.40527 12.9697L6.57419 11.3522C6.14881 10.5243 5.47488 9.85038 4.64698 9.425L3.02947 8.59392C2.54551 8.34526 2.54551 7.65344 3.02947 7.40478L4.64698 6.5737C5.47488 6.14832 6.14881 5.4744 6.57419 4.6465L7.40527 3.02899Z" fill="url(#paint0_linear_245_8019)"/>
  <circle cx="12.1253" cy="12.1248" r="0.941176" fill="#7283ED"/>
  <defs>
    <linearGradient id="paint0_linear_245_8019" x1="7.12447" y1="2.25475" x2="16.3517" y2="8.37615" gradientUnits="userSpaceOnUse">
      <stop stop-color="#24CFFF"/>
      <stop offset="1" stop-color="#C12FFF"/>
    </linearGradient>
  </defs>
</svg>