<svg xmlns="http://www.w3.org/2000/svg" width="24" height="24" viewBox="0 0 24 24" fill="none">
  <path d="M5.34863 2.74129C5.49155 2.20792 6.03987 1.8915 6.57324 2.03426C7.10671 2.1772 7.42322 2.7254 7.28027 3.25887L6.58887 5.83602C8.36865 4.56463 10.108 3.64168 12.5 3.64168C17.1944 3.64168 21 7.44728 21 12.1417C20.9997 16.8359 17.1943 20.6417 12.5 20.6417C7.80574 20.6417 4.00026 16.8359 4 12.1417C4.00001 11.5894 4.44772 11.1417 5 11.1417C5.55228 11.1417 5.99999 11.5894 6 12.1417C6.00026 15.7313 8.91031 18.6417 12.5 18.6417C16.0897 18.6417 18.9997 15.7313 19 12.1417C19 8.55185 16.0898 5.64168 12.5 5.64168C10.712 5.64168 9.39247 6.29253 7.74121 7.47176L10.0732 8.09676C10.6067 8.2397 10.9232 8.7879 10.7803 9.32137C10.6372 9.85464 10.089 10.1713 9.55566 10.0284L4.77441 8.74715C4.24126 8.60406 3.92462 8.05581 4.06738 7.52254L5.34863 2.74129Z" fill="#A3A5AD"/>
</svg>