<svg xmlns="http://www.w3.org/2000/svg" width="16" height="16" viewBox="0 0 16 16" fill="none">
<path fill-rule="evenodd" clip-rule="evenodd" d="M7.26057 1.3335C3.98714 1.3335 1.3335 3.98715 1.3335 7.2606C1.3335 10.534 3.98714 13.1877 7.26057 13.1877C8.64603 13.1877 9.92047 12.7123 10.9297 11.9158L13.4765 14.4626C13.7488 14.7349 14.1903 14.7349 14.4626 14.4626C14.7349 14.1903 14.7349 13.7488 14.4626 13.4765L11.9158 10.9297C12.7123 9.92045 13.1876 8.64604 13.1876 7.2606C13.1876 3.98715 10.534 1.3335 7.26057 1.3335ZM2.7281 7.2606C2.7281 4.75737 4.75736 2.72811 7.26057 2.72811C9.76378 2.72811 11.793 4.75737 11.793 7.2606C11.793 9.76382 9.76378 11.7931 7.26057 11.7931C4.75736 11.7931 2.7281 9.76382 2.7281 7.2606Z" fill="#4C4F58"/>
</svg>