<svg xmlns="http://www.w3.org/2000/svg" width="20" height="20" viewBox="0 0 20 20" fill="none">
  <path d="M10 2.5C14.142 2.5 17.4998 5.85803 17.5 10C17.5 14.1421 14.1421 17.5 10 17.5C5.85786 17.5 2.5 14.1421 2.5 10C2.5002 5.85803 5.85799 2.5 10 2.5ZM10 6.66699C9.65484 6.66699 9.37502 6.94683 9.375 7.29199V9.58398H7.29199C6.94681 9.58398 6.66699 9.86381 6.66699 10.209C6.66715 10.554 6.94691 10.834 7.29199 10.834H9.375V12.709C9.37515 13.054 9.65492 13.334 10 13.334C10.3451 13.334 10.6248 13.054 10.625 12.709V10.834H12.708C13.0531 10.834 13.3329 10.554 13.333 10.209C13.333 9.86381 13.0532 9.58398 12.708 9.58398H10.625V7.29199C10.625 6.94683 10.3452 6.66699 10 6.66699Z" fill="#A3A5AD"/>
</svg>