<svg xmlns="http://www.w3.org/2000/svg" width="24" height="24" viewBox="0 0 24 24" fill="none">
  <path fill-rule="evenodd" clip-rule="evenodd" d="M17 12C19.7614 12 22 14.2386 22 17C22 19.7614 19.7614 22 17 22C14.2386 22 12 19.7614 12 17C12 14.2386 14.2386 12 17 12ZM17.0293 14C16.7809 14 16.5792 14.188 16.5791 14.4199V16.5801H14.4795C14.2149 16.5801 14.0001 16.7819 14 17.0303C14 17.2787 14.2148 17.4805 14.4795 17.4805H16.5791V19.5205C16.5791 19.7851 16.7808 20 17.0293 20C17.2776 19.9998 17.4785 19.785 17.4785 19.5205V17.4805H19.5195C19.7848 17.4805 20 17.2787 20 17.0303C19.9999 16.7819 19.7848 16.5801 19.5195 16.5801H17.4785V14.4199C17.4784 14.1881 17.2775 14.0002 17.0293 14Z" fill="#4C4F58"/>
  <path d="M12 3C14.7614 3 17 5.23858 17 8C17 8.92679 16.7444 9.79238 16.3047 10.5361C13.0417 10.8831 10.5 13.645 10.5 17C10.5 18.5091 11.016 19.8968 11.8789 21H3V20C3 16.1756 5.68374 12.979 9.27051 12.1885C7.90385 11.2961 7 9.75401 7 8C7 5.23858 9.23858 3 12 3Z" fill="#4C4F58"/>
</svg>