<svg xmlns="http://www.w3.org/2000/svg" width="24" height="24" viewBox="0 0 24 24" fill="none">
  <path fill-rule="evenodd" clip-rule="evenodd" d="M11.1416 3.35744C12.4686 2.72718 13.9999 3.69505 14 5.16408V8.00002L18.9521 10.6826C19.5974 11.0321 19.9998 11.7067 20 12.4405V20.25H21C21.4142 20.25 21.75 20.5858 21.75 21C21.7499 21.4141 21.4141 21.75 21 21.75H3C2.58585 21.75 2.2501 21.4141 2.25 21C2.25 20.5858 2.58579 20.25 3 20.25H4V8.01369C4.00009 7.24173 4.44434 6.53834 5.1416 6.20705L11.1416 3.35744ZM7 12.25C6.58582 12.25 6.25005 12.5859 6.25 13C6.25009 13.4142 6.58584 13.75 7 13.75H9C9.41416 13.75 9.74991 13.4142 9.75 13C9.74995 12.5859 9.41418 12.25 9 12.25H7ZM7 9.25002C6.58582 9.25002 6.25006 9.58586 6.25 10C6.25009 10.4142 6.58584 10.75 7 10.75H9C9.41416 10.75 9.74991 10.4142 9.75 10C9.74994 9.58586 9.41418 9.25002 9 9.25002H7Z" fill="#4C4F58"/>
</svg>