<svg xmlns="http://www.w3.org/2000/svg" width="16" height="16" viewBox="0 0 16 16" fill="none">
  <path fill-rule="evenodd" clip-rule="evenodd" d="M12.6666 4.6665C13.0348 4.6665 13.3333 4.96498 13.3333 5.33317C13.3333 5.70136 13.0348 5.99984 12.6666 5.99984V11.9998C12.6666 13.1044 11.7712 13.9998 10.6666 13.9998H5.33329C4.22873 13.9998 3.33331 13.1044 3.33329 11.9998V5.99984L3.26493 5.99658C2.92885 5.96236 2.66663 5.67829 2.66663 5.33317C2.66663 4.96498 2.9651 4.6665 3.33329 4.6665H12.6666ZM6.83329 7.33317C6.55715 7.33317 6.33329 7.55703 6.33329 7.83317V10.8332C6.33329 11.1093 6.55715 11.3332 6.83329 11.3332C7.10944 11.3332 7.33329 11.1093 7.33329 10.8332V7.83317C7.33329 7.55703 7.10944 7.33317 6.83329 7.33317ZM9.16663 7.33317C8.89048 7.33317 8.66663 7.55703 8.66663 7.83317V10.8332C8.66663 11.1093 8.89048 11.3332 9.16663 11.3332C9.44277 11.3332 9.66663 11.1093 9.66663 10.8332V7.83317C9.66663 7.55703 9.44277 7.33317 9.16663 7.33317Z" fill="#4C4F58"/>
  <path d="M9.33329 2.6665C9.70148 2.6665 9.99996 2.96498 9.99996 3.33317C9.99996 3.70136 9.70148 3.99984 9.33329 3.99984H6.66663C6.29844 3.99984 5.99996 3.70136 5.99996 3.33317C5.99996 2.96498 6.29844 2.6665 6.66663 2.6665H9.33329Z" fill="#4C4F58"/>
</svg>