<svg xmlns="http://www.w3.org/2000/svg" width="24" height="24" viewBox="0 0 24 24" fill="none">
  <path d="M10.4268 4.39648C11.3012 3.53478 12.6988 3.53478 13.5732 4.39648L18.5732 9.32324C19.0057 9.74943 19.25 10.3343 19.25 10.9453V17.8877C19.25 18.679 18.6524 19.25 18 19.25H15.9023C15.2501 19.2498 14.6523 18.6788 14.6523 17.8877V16.916C14.6522 16.3149 14.3263 15.8332 14.0254 15.5088C12.9496 14.3491 11.0504 14.3491 9.97461 15.5088C9.67372 15.8332 9.34783 16.3149 9.34766 16.916V17.8877C9.34766 18.6788 8.74987 19.2498 8.09766 19.25H6C5.34764 19.25 4.75 18.679 4.75 17.8877V10.9453C4.75 10.3343 4.99429 9.74943 5.42676 9.32324L10.4268 4.39648Z" fill="#4C4F58" stroke="#4C4F58" stroke-width="1.5"/>
</svg>
