<svg width="34" height="34" viewBox="0 0 34 34" fill="none" xmlns="http://www.w3.org/2000/svg">
<rect x="0.300526" y="0.300037" width="32.6001" height="32.5197" rx="16.2598" stroke="white" stroke-width="0.60012"/>
<path d="M16.6038 32.5196C25.4345 32.5196 32.6006 25.3808 32.6006 16.5631C32.6006 7.74531 25.4345 0.600098 16.5974 0.600098C7.76026 0.600098 0.600586 7.75171 0.600586 16.5631C0.600586 25.3744 7.76026 32.5196 16.6102 32.5196H16.6038Z" fill="#0083CA"/>
<mask id="mask0_9688_17043" style="mask-type:luminance" maskUnits="userSpaceOnUse" x="0" y="0" width="33" height="33">
<path d="M16.6038 32.5196C25.4345 32.5196 32.6006 25.3808 32.6006 16.5631C32.6006 7.74531 25.4345 0.600098 16.5974 0.600098C7.76026 0.600098 0.600586 7.75171 0.600586 16.5631C0.600586 25.3744 7.76026 32.5196 16.6102 32.5196H16.6038Z" fill="white"/>
</mask>
<g mask="url(#mask0_9688_17043)">
<path d="M16.6617 24.2723C23.6929 24.2723 29.7214 26.2268 32.305 28.9952C33.1727 27.0086 33.6483 24.8234 33.6483 22.5356C33.6483 13.3782 26.0323 5.96387 16.6617 5.96387C7.2912 5.96387 -0.318359 13.3846 -0.318359 22.5356C-0.318359 24.8362 0.157238 27.0086 1.02488 28.9952C3.6021 26.2268 9.63062 24.2723 16.6617 24.2723Z" fill="#0083CA"/>
<path d="M16.6613 24.2848C23.6731 24.2848 29.6888 26.2265 32.266 28.9692C33.1336 26.9955 33.6092 24.8295 33.6092 22.561C33.6092 13.4805 26.019 6.09814 16.6677 6.09814C7.31643 6.09814 -0.280273 13.4869 -0.280273 22.5674C-0.280273 24.8487 0.195324 27.0083 1.05654 28.9756C3.62734 26.2265 9.643 24.2912 16.6548 24.2912L16.6613 24.2848Z" fill="#0085CB"/>
<path d="M16.6557 24.3041C23.6483 24.3041 29.6511 26.2266 32.2155 28.9501C33.0831 26.9956 33.5523 24.8488 33.5523 22.5931C33.5523 13.5831 25.9813 6.24561 16.6493 6.24561C7.31734 6.24561 -0.234375 13.5959 -0.234375 22.5995C-0.234375 24.8616 0.241222 27.002 1.10244 28.9565C3.66681 26.233 9.66319 24.3105 16.6557 24.3105V24.3041Z" fill="#0086CC"/>
<path d="M16.6553 24.3234C23.6286 24.3234 29.6121 26.2267 32.1765 28.931C33.0377 26.9957 33.5133 24.8617 33.5133 22.6252C33.5133 13.6921 25.9616 6.38672 16.6553 6.38672C7.349 6.38672 -0.196289 13.6985 -0.196289 22.6317C-0.196289 24.8745 0.279308 27.0021 1.1341 28.9374C3.69204 26.2331 9.67557 24.3298 16.6489 24.3298L16.6553 24.3234Z" fill="#0088CC"/>
<path d="M16.6552 24.3428C23.6157 24.3428 29.5799 26.2332 32.1379 28.9119C32.9991 26.9894 33.4682 24.8747 33.4682 22.6574C33.4682 13.7948 25.9358 6.52783 16.6552 6.52783C7.37464 6.52783 -0.151367 13.8012 -0.151367 22.6638C-0.151367 24.8875 0.32423 26.9958 1.17902 28.9183C3.73054 26.2396 9.69479 24.3492 16.6552 24.3492V24.3428Z" fill="#0089CD"/>
<path d="M16.6493 24.3557C23.5904 24.3557 29.5418 26.2334 32.0934 28.8928C32.9481 26.9895 33.4237 24.894 33.4237 22.6896C33.4237 13.9039 25.9106 6.66895 16.6557 6.66895C7.40085 6.66895 -0.112305 13.9103 -0.112305 22.6896C-0.112305 24.9004 0.356866 26.9831 1.21166 28.8928C3.75675 26.2334 9.70814 24.3557 16.6493 24.3557Z" fill="#008BCE"/>
<path d="M16.6482 24.3746C23.5701 24.3746 29.5087 26.233 32.0473 28.8732C32.9021 26.9828 33.3713 24.9065 33.3713 22.7213C33.3713 14.006 25.8774 6.80957 16.6482 6.80957C7.41909 6.80957 -0.0683594 14.0125 -0.0683594 22.7213C-0.0683594 24.9129 0.400811 26.9828 1.2556 28.8732C3.79426 26.233 9.72638 24.3746 16.6547 24.3746H16.6482Z" fill="#008DCF"/>
<path d="M16.6487 24.3939C23.5513 24.3939 29.477 26.2395 32.0093 28.8541C32.864 26.9828 33.3332 24.9194 33.3332 22.7598C33.3332 14.1215 25.8586 6.95703 16.6487 6.95703C7.43887 6.95703 -0.0292969 14.1151 -0.0292969 22.7534C-0.0292969 24.9258 0.439873 26.9764 1.28824 28.8476C3.82047 26.2331 9.73973 24.3875 16.6423 24.3875L16.6487 24.3939Z" fill="#008ED0"/>
<path d="M16.6428 24.4128C23.5261 24.4128 29.439 26.2391 31.9648 28.8345C32.8131 26.9761 33.2823 24.9318 33.2823 22.7915C33.2823 14.2236 25.827 7.09766 16.6428 7.09766C7.45865 7.09766 0.00976562 14.2236 0.00976562 22.7851C0.00976562 24.9382 0.478936 26.9761 1.3273 28.8281C3.85311 26.2391 9.75951 24.4064 16.6428 24.4064V24.4128Z" fill="#0090D0"/>
<path d="M16.6427 24.4326C23.5068 24.4326 29.4003 26.2461 31.9261 28.8158C32.7745 26.9766 33.2437 24.9516 33.2437 22.8241C33.2437 14.3331 25.8076 7.24561 16.6492 7.24561C7.49071 7.24561 0.0546875 14.3267 0.0546875 22.8177C0.0546875 24.9516 0.523858 26.9702 1.36579 28.8094C3.87875 26.2397 9.7723 24.4261 16.6427 24.4261V24.4326Z" fill="#0092D1"/>
<path d="M16.6423 24.4451C23.487 24.4451 29.3677 26.2394 31.8807 28.7899C32.729 26.9635 33.1918 24.9577 33.1918 22.8494C33.1918 14.429 25.775 7.37988 16.6423 7.37988C7.50952 7.37988 0.0927734 14.4354 0.0927734 22.8494C0.0927734 24.9641 0.555517 26.9635 1.40388 28.7899C3.91041 26.2394 9.7911 24.4451 16.6423 24.4451Z" fill="#0093D2"/>
<path d="M16.6358 24.4644C23.4612 24.4644 29.3291 26.2459 31.8356 28.7708C32.6775 26.9637 33.1467 24.9707 33.1467 22.8816C33.1467 14.5316 25.7492 7.521 16.6358 7.521C7.52231 7.521 0.137695 14.538 0.137695 22.8816C0.137695 24.9771 0.600439 26.9637 1.44237 28.7708C3.94247 26.2459 9.80389 24.4644 16.6358 24.4644Z" fill="#0095D3"/>
<path d="M16.6363 24.4833C23.4489 24.4833 29.2974 26.2456 31.7975 28.7512C32.6395 26.9569 33.1022 24.9832 33.1022 22.9133C33.1022 14.6402 25.724 7.66162 16.6363 7.66162C7.54851 7.66162 0.176758 14.6402 0.176758 22.9133C0.176758 24.9896 0.639501 26.9569 1.48144 28.7512C3.97511 26.2456 9.82367 24.4833 16.6363 24.4833Z" fill="#0097D4"/>
<path d="M16.6362 24.5027C23.4295 24.5027 29.2652 26.2521 31.7589 28.7321C32.5944 26.957 33.0636 25.0025 33.0636 22.9454C33.0636 14.7429 25.7047 7.80273 16.6426 7.80273C7.58058 7.80273 0.22168 14.7493 0.22168 22.9454C0.22168 25.0025 0.684423 26.957 1.51993 28.7321C4.00717 26.2521 9.84288 24.5027 16.6362 24.5027Z" fill="#0098D5"/>
<path d="M16.6303 24.516C23.4043 24.516 29.2272 26.2463 31.708 28.707C32.5435 26.9448 33.0062 25.0095 33.0062 22.9781C33.0062 14.8524 25.6666 7.95068 16.6303 7.95068C7.59394 7.95068 0.260742 14.8524 0.260742 22.9781C0.260742 25.0159 0.723485 26.9512 1.55899 28.707C4.03981 26.2463 9.85623 24.516 16.6367 24.516H16.6303Z" fill="#009AD5"/>
<path d="M16.6288 24.5349C23.3836 24.5349 29.1872 26.2523 31.668 28.6875C32.5035 26.9444 32.9663 25.0219 32.9663 23.0097C32.9663 14.9546 25.6459 8.09131 16.6288 8.09131C7.61177 8.09131 0.297852 14.9546 0.297852 23.0097C0.297852 25.0283 0.760595 26.9508 1.58968 28.6875C4.06407 26.2523 9.86764 24.5349 16.6288 24.5349Z" fill="#009CD6"/>
<path d="M16.6307 24.5538C23.3662 24.5538 29.1569 26.252 31.6313 28.6679C32.4604 26.9376 32.9232 25.0408 32.9232 23.0414C32.9232 15.0631 25.6221 8.23193 16.6307 8.23193C7.63936 8.23193 0.344727 15.0631 0.344727 23.0414C0.344727 25.0408 0.801043 26.944 1.63013 28.6679C4.09809 26.252 9.88238 24.5538 16.6243 24.5538H16.6307Z" fill="#009ED7"/>
<path d="M16.6228 24.5731C23.339 24.5731 29.1169 26.2585 31.5849 28.6488C32.414 26.9378 32.8703 25.0537 32.8703 23.0736C32.8703 15.1658 25.5885 8.37305 16.6228 8.37305C7.65719 8.37305 0.381836 15.1658 0.381836 23.0736C0.381836 25.0537 0.838152 26.9378 1.66723 28.6488C4.12877 26.2585 9.90021 24.5731 16.6228 24.5731Z" fill="#00A0D8"/>
<path d="M16.6238 24.5861C23.3207 24.5861 29.0857 26.2523 31.5408 28.6233C32.3699 26.9251 32.8262 25.0603 32.8262 23.0994C32.8262 15.2621 25.5701 8.50781 16.6238 8.50781C7.67738 8.50781 0.427734 15.2685 0.427734 23.1058C0.427734 25.0732 0.884051 26.938 1.70671 28.6297C4.16182 26.2587 9.91398 24.5925 16.6238 24.5925V24.5861Z" fill="#00A1D9"/>
<path d="M16.6233 24.6055C23.3073 24.6055 29.0531 26.2588 31.5018 28.6042C32.3244 26.9189 32.7807 25.0733 32.7807 23.1316C32.7807 15.3712 25.5439 8.64893 16.6168 8.64893C7.68976 8.64893 0.46582 15.3776 0.46582 23.138C0.46582 25.0861 0.922137 26.9317 1.74479 28.6106C4.19347 26.2652 9.93278 24.6119 16.6233 24.6119V24.6055Z" fill="#00A3DA"/>
<path d="M16.6168 24.6248C23.2816 24.6248 29.008 26.2589 31.4567 28.5851C32.2794 26.9189 32.7357 25.0862 32.7357 23.1637C32.7357 15.4738 25.5182 8.79639 16.6168 8.79639C7.7154 8.79639 0.510742 15.4802 0.510742 23.1701C0.510742 25.099 0.967058 26.9318 1.78329 28.5915C4.22554 26.2653 9.95199 24.6312 16.6168 24.6312V24.6248Z" fill="#00A5DB"/>
<path d="M16.6173 24.6437C23.2628 24.6437 28.9764 26.2649 31.4186 28.5655C32.2413 26.9122 32.6912 25.1051 32.6912 23.1954C32.6912 15.5824 25.493 8.93701 16.6173 8.93701C7.74161 8.93701 0.549805 15.5888 0.549805 23.2018C0.549805 25.1115 0.999694 26.925 1.82235 28.5719C4.25818 26.2714 9.96534 24.6501 16.6173 24.6501V24.6437Z" fill="#00A7DC"/>
<path d="M16.6168 24.6565C23.243 24.6565 28.9438 26.265 31.3732 28.5464C32.1894 26.9122 32.6457 25.1179 32.6457 23.2339C32.6457 15.6914 25.4668 9.08447 16.6168 9.08447C7.76684 9.08447 0.587891 15.6914 0.587891 23.2275C0.587891 25.1179 1.03778 26.9122 1.85401 28.5399C4.28341 26.2586 9.97772 24.6501 16.6104 24.6501L16.6168 24.6565Z" fill="#00A9DD"/>
<path d="M16.6113 24.6759C23.2182 24.6759 28.9061 26.2652 31.3291 28.5273C32.1453 26.906 32.5952 25.1309 32.5952 23.2661C32.5952 15.8005 25.4355 9.22559 16.6113 9.22559C7.78703 9.22559 0.633789 15.7941 0.633789 23.2597C0.633789 25.1309 1.08368 26.9124 1.89991 28.5209C4.32288 26.2652 9.99791 24.6695 16.6177 24.6695L16.6113 24.6759Z" fill="#00ABDE"/>
<path d="M16.6098 24.6953C23.1975 24.6953 28.8726 26.2717 31.2891 28.5082C32.1053 26.9061 32.5552 25.1502 32.5552 23.2983C32.5552 15.9031 25.4148 9.3667 16.6098 9.3667C7.80486 9.3667 0.670898 15.9031 0.670898 23.2918C0.670898 25.1438 1.12079 26.9061 1.93059 28.5018C4.34714 26.2653 10.0093 24.6888 16.6034 24.6888L16.6098 24.6953Z" fill="#00ADDE"/>
<path d="M16.6098 24.7141C23.1782 24.7141 28.8339 26.2713 31.2505 28.4886C32.0603 26.8993 32.5102 25.1627 32.5102 23.3299C32.5102 16.0117 25.389 9.50732 16.6098 9.50732C7.8305 9.50732 0.71582 16.0053 0.71582 23.3235C0.71582 25.1563 1.16571 26.9057 1.97551 28.4822C4.38563 26.2649 10.035 24.7077 16.6098 24.7077V24.7141Z" fill="#00AFDF"/>
<path d="M16.6038 24.7271C23.153 24.7271 28.7959 26.2715 31.1996 28.4631C32.0094 26.8931 32.4592 25.1692 32.4592 23.3557C32.4592 16.108 25.3574 9.64844 16.6038 9.64844C7.85028 9.64844 0.754883 16.108 0.754883 23.3557C0.754883 25.1692 1.20477 26.8995 2.00815 28.4631C4.41184 26.2715 10.0419 24.7271 16.6038 24.7271Z" fill="#00B1E0"/>
<path d="M16.6038 24.7464C23.14 24.7464 28.7636 26.2716 31.1609 28.444C31.9643 26.8932 32.4142 25.1822 32.4142 23.3879C32.4142 16.2106 25.3316 9.78955 16.5974 9.78955C7.86307 9.78955 0.799805 16.217 0.799805 23.3879C0.799805 25.1822 1.24327 26.8932 2.05307 28.444C4.45034 26.2716 10.0675 24.7464 16.6102 24.7464H16.6038Z" fill="#00B3E1"/>
<path d="M16.6033 24.7653C23.1203 24.7653 28.731 26.2776 31.1219 28.4244C31.9253 26.8864 32.3751 25.2011 32.3751 23.4196C32.3751 16.3192 25.3119 9.93018 16.6033 9.93018C7.89473 9.93018 0.837891 16.3192 0.837891 23.4196C0.837891 25.1947 1.28135 26.8928 2.08473 28.4244C4.47557 26.2776 10.0735 24.7653 16.6033 24.7653Z" fill="#0DB5E2"/>
<path d="M16.6042 24.7851C23.1019 24.7851 28.6998 26.2783 31.0842 28.4058C31.8876 26.887 32.3311 25.2145 32.3311 23.4522C32.3311 16.4224 25.2871 10.0718 16.6042 10.0718C7.92134 10.0718 0.883789 16.4224 0.883789 23.4522C0.883789 25.2145 1.32725 26.887 2.13063 28.4058C4.51504 26.2783 10.1001 24.7851 16.6042 24.7851Z" fill="#19B7E3"/>
<path d="M16.5983 24.804C23.0767 24.804 28.6617 26.2843 31.0397 28.3862C31.8367 26.8802 32.2866 25.2269 32.2866 23.4903C32.2866 16.5373 25.2619 10.2188 16.6047 10.2188C7.94755 10.2188 0.922852 16.5309 0.922852 23.4838C0.922852 25.2269 1.36631 26.8866 2.16326 28.3798C4.54125 26.2779 10.1134 24.7975 16.5983 24.7975V24.804Z" fill="#21B9E4"/>
<path d="M16.5978 24.817C23.0569 24.817 28.6227 26.278 30.9943 28.3607C31.7912 26.8676 32.2347 25.2335 32.2347 23.5161C32.2347 16.6336 25.2292 10.3535 16.5978 10.3535C7.96636 10.3535 0.960938 16.6336 0.960938 23.5161C0.960938 25.2399 1.4044 26.8804 2.19492 28.3607C4.56648 26.278 10.1194 24.817 16.5914 24.817H16.5978Z" fill="#28BBE5"/>
<path d="M16.5975 24.8615C23.0502 24.8615 28.6095 26.3162 30.9747 28.3797C31.7716 26.8993 32.2151 25.2781 32.2151 23.5671C32.2151 16.7294 25.2225 10.4878 16.5975 10.4878C7.97247 10.4878 0.986328 16.7294 0.986328 23.5671C0.986328 25.2781 1.42979 26.9122 2.22031 28.3797C4.58544 26.3098 10.1319 24.8615 16.5975 24.8615Z" fill="#37BDE6"/>
<path d="M16.5977 24.9002C23.044 24.9002 28.5905 26.342 30.9556 28.3991C31.7526 26.9316 32.196 25.3167 32.196 23.6185C32.196 16.8258 25.2099 10.6226 16.5977 10.6226C7.98557 10.6226 1.00586 16.8258 1.00586 23.6121C1.00586 25.3103 1.44289 26.9316 2.23984 28.3927C4.60497 26.3356 10.145 24.8937 16.5977 24.8937V24.9002Z" fill="#43BFE6"/>
<path d="M16.597 24.9385C23.0304 24.9385 28.5769 26.3739 30.9356 28.4118C31.7262 26.9507 32.1696 25.3486 32.1696 23.6568C32.1696 16.9089 25.1963 10.7378 16.597 10.7378C7.9977 10.7378 1.02441 16.9154 1.02441 23.6633C1.02441 25.355 1.46145 26.9635 2.2584 28.4182C4.6171 26.3804 10.1507 24.9449 16.597 24.9449V24.9385Z" fill="#4DC0E7"/>
<path d="M16.5986 24.9835C23.0256 24.9835 28.5593 26.4061 30.918 28.4375C31.7085 26.9893 32.152 25.3936 32.152 23.7146C32.152 17.0116 25.1851 10.8789 16.5986 10.8789C8.01219 10.8789 1.05176 17.0116 1.05176 23.7146C1.05176 25.3936 1.48879 26.9893 2.27931 28.4375C4.63802 26.4125 10.1652 24.9835 16.5986 24.9835Z" fill="#56C2E8"/>
<path d="M16.5979 25.0218C23.0185 25.0218 28.5393 26.438 30.898 28.4502C31.6885 27.0083 32.132 25.4255 32.132 23.7593C32.132 17.1012 25.178 11.0005 16.5979 11.0005C8.01789 11.0005 1.07031 17.1076 1.07031 23.7593C1.07031 25.4255 1.50735 27.0147 2.29787 28.4502C4.65015 26.438 10.1709 25.0218 16.5979 25.0218Z" fill="#5EC4E8"/>
<path d="M16.5972 25.0605C23.0049 25.0605 28.5257 26.4639 30.878 28.4632C31.6685 27.0342 32.112 25.4642 32.112 23.8044C32.112 17.1911 25.1644 11.1289 16.6036 11.1289C8.04288 11.1289 1.08887 17.1975 1.08887 23.8108C1.08887 25.4642 1.5259 27.0406 2.31642 28.4697C4.6687 26.4703 10.1766 25.0669 16.5972 25.0669V25.0605Z" fill="#65C6E9"/>
<path d="M16.5969 25.0986C22.9982 25.0986 28.5061 26.4956 30.8584 28.4822C31.6489 27.0595 32.0859 25.5023 32.0859 23.8554C32.0859 17.2869 25.1448 11.2632 16.5969 11.2632C8.04898 11.2632 1.11426 17.2934 1.11426 23.8618C1.11426 25.5087 1.55129 27.0724 2.33539 28.4886C4.68124 26.502 10.1892 25.105 16.5969 25.105V25.0986Z" fill="#6DC7EA"/>
<path d="M16.5971 25.1437C22.992 25.1437 28.4935 26.5279 30.8394 28.5017C31.6234 27.0918 32.0669 25.541 32.0669 23.9069C32.0669 17.3833 25.1386 11.3916 16.5971 11.3916C8.05566 11.3916 1.13379 17.3897 1.13379 23.9069C1.13379 25.541 1.57082 27.0918 2.35492 28.5017C4.70077 26.5279 10.1958 25.1437 16.5971 25.1437Z" fill="#74C9EA"/>
<path d="M16.5974 25.1824C22.9794 25.1824 28.4745 26.5601 30.8203 28.5211C31.6044 27.1177 32.0479 25.5797 32.0479 23.9584C32.0479 17.4796 25.126 11.5264 16.6038 11.5264C8.08162 11.5264 1.15332 17.4796 1.15332 23.9584C1.15332 25.5797 1.58393 27.1241 2.37445 28.5211C4.71387 26.5601 10.2089 25.1824 16.5974 25.1824Z" fill="#7ACBEB"/>
<path d="M16.5971 25.227C22.9726 25.227 28.4613 26.5919 30.8007 28.5401C31.5848 27.1495 32.0219 25.6179 32.0219 24.0094C32.0219 17.5755 25.1128 11.6543 16.5971 11.6543C8.0813 11.6543 1.17871 17.5755 1.17871 24.0094C1.17871 25.6179 1.60932 27.1495 2.39341 28.5401C4.73284 26.5919 10.2151 25.227 16.5971 25.227Z" fill="#81CDEC"/>
<path d="M16.5983 25.2657C22.9674 25.2657 28.4432 26.6242 30.7826 28.5531C31.5667 27.1689 32.0038 25.6566 32.0038 24.0545C32.0038 17.6655 25.1012 11.7827 16.5983 11.7827C8.09538 11.7827 1.19922 17.6719 1.19922 24.0545C1.19922 25.6566 1.62983 27.1754 2.41392 28.5531C4.74692 26.6242 10.2291 25.2657 16.5983 25.2657Z" fill="#87CFEC"/>
<path d="M16.5976 25.3038C22.9603 25.3038 28.4297 26.6496 30.7627 28.5721C31.5468 27.2007 31.9838 25.6947 31.9838 24.1055C31.9838 17.7613 25.0941 11.917 16.604 11.917C8.11394 11.917 1.21777 17.7613 1.21777 24.1055C1.21777 25.6947 1.64838 27.2007 2.43248 28.5721C4.76547 26.656 10.2348 25.3038 16.5976 25.3038Z" fill="#8ED1ED"/>
<path d="M16.5978 25.3485C22.9477 25.3485 28.4106 26.6878 30.7372 28.591C31.5149 27.2261 31.9583 25.733 31.9583 24.1565C31.9583 17.8572 25.075 12.0449 16.5978 12.0449C8.12061 12.0449 1.2373 17.8572 1.2373 24.1565C1.2373 25.733 1.66791 27.2325 2.44558 28.591C4.77215 26.6878 10.2351 25.3485 16.5914 25.3485H16.5978Z" fill="#94D3EE"/>
<path d="M16.5975 25.3871C22.9409 25.3871 28.3975 26.7136 30.7176 28.6105C31.4953 27.2583 31.9323 25.7716 31.9323 24.208C31.9323 17.9535 25.0618 12.1797 16.5911 12.1797C8.12029 12.1797 1.2627 17.9535 1.2627 24.2016C1.2627 25.7652 1.6933 27.2519 2.47097 28.6041C4.79754 26.7136 10.2541 25.3807 16.5975 25.3807V25.3871Z" fill="#9AD5EF"/>
<path d="M16.5977 25.4259C22.9347 25.4259 28.3784 26.746 30.6985 28.6236C31.4762 27.2779 31.9132 25.804 31.9132 24.2532C31.9132 18.0436 25.0492 12.3018 16.5977 12.3018C8.14625 12.3018 1.28223 18.0436 1.28223 24.2532C1.28223 25.8104 1.71283 27.2843 2.4905 28.6236C4.81064 26.746 10.2607 25.4259 16.5977 25.4259Z" fill="#A0D7F0"/>
<path d="M16.598 25.4704C22.9222 25.4704 28.3594 26.7777 30.6795 28.6425C31.4572 27.3096 31.8942 25.8485 31.8942 24.3041C31.8942 18.1394 25.0366 12.436 16.598 12.436C8.15936 12.436 1.30176 18.1394 1.30176 24.3041C1.30176 25.8485 1.72594 27.316 2.51003 28.6425C4.83018 26.7777 10.2738 25.4704 16.598 25.4704Z" fill="#A6D9F0"/>
<path d="M16.5977 25.5091C22.9154 25.5091 28.3462 26.81 30.6599 28.6619C31.4312 27.3354 31.8682 25.8872 31.8682 24.3556C31.8682 18.2357 25.0234 12.5708 16.5912 12.5708C8.15904 12.5708 1.32715 18.2357 1.32715 24.3492C1.32715 25.8808 1.75133 27.3354 2.52899 28.6555C4.84914 26.8035 10.2799 25.5027 16.5977 25.5027V25.5091Z" fill="#ACDCF1"/>
<path d="M16.5979 25.5478C22.9092 25.5478 28.3272 26.8359 30.6409 28.6751C31.4121 27.3614 31.8492 25.9195 31.8492 24.4008C31.8492 18.3257 25.0109 12.6929 16.5979 12.6929C8.185 12.6929 1.34668 18.3321 1.34668 24.4008C1.34668 25.9195 1.77086 27.3614 2.54853 28.6751C4.86224 26.8359 10.2866 25.5478 16.5979 25.5478Z" fill="#B2DEF2"/>
<path d="M16.5972 25.5861C22.8957 25.5861 28.3136 26.8677 30.6209 28.6876C31.3921 27.3804 31.8292 25.9513 31.8292 24.4454C31.8292 18.4152 25.0037 12.8208 16.5972 12.8208C8.1907 12.8208 1.36523 18.4216 1.36523 24.4518C1.36523 25.9641 1.78942 27.3932 2.56708 28.6941C4.87437 26.8677 10.2988 25.5925 16.5972 25.5925V25.5861Z" fill="#B8E0F3"/>
<path d="M16.5979 25.6306C22.8899 25.6306 28.295 26.9059 30.6023 28.713C31.3735 27.4185 31.8105 25.9959 31.8105 24.5028C31.8105 18.5174 24.9915 12.9551 16.5979 12.9551C8.20421 12.9551 1.3916 18.5174 1.3916 24.4964C1.3916 25.9959 1.81578 27.4185 2.58702 28.7066C4.89431 26.8995 10.3058 25.6242 16.5979 25.6242V25.6306Z" fill="#BDE2F4"/>
<path d="M16.5981 25.6693C22.8837 25.6693 28.2824 26.9317 30.5833 28.7261C31.3545 27.4444 31.7851 26.0346 31.7851 24.5479C31.7851 18.6074 24.9789 13.0835 16.5981 13.0835C8.21732 13.0835 1.41113 18.6138 1.41113 24.5479C1.41113 26.0346 1.83531 27.4444 2.60655 28.7261C4.90742 26.9317 10.3189 25.6693 16.5981 25.6693Z" fill="#C3E5F5"/>
<path d="M16.5984 25.7075C22.8711 25.7075 28.2633 26.9635 30.5642 28.745C31.329 27.4697 31.7661 26.0727 31.7661 24.5988C31.7661 18.7032 24.9663 13.2178 16.5984 13.2178C8.23042 13.2178 1.43066 18.7032 1.43066 24.5988C1.43066 26.0791 1.85485 27.4761 2.62608 28.745C4.92695 26.9635 10.3256 25.7075 16.5984 25.7075Z" fill="#C9E7F5"/>
<path d="M16.5976 25.7521C22.864 25.7521 28.2433 26.9953 30.5442 28.764C31.309 27.5016 31.7461 26.111 31.7461 24.6499C31.7461 18.7991 24.9592 13.3457 16.5976 13.3457C8.23612 13.3457 1.44922 18.7991 1.44922 24.6435C1.44922 26.111 1.86697 27.4951 2.63821 28.7576C4.93907 26.9889 10.3249 25.7457 16.5912 25.7457L16.5976 25.7521Z" fill="#CEE9F6"/>
<path d="M16.5983 25.7908C22.8582 25.7908 28.2311 27.0212 30.5256 28.777C31.2904 27.521 31.7274 26.1433 31.7274 24.695C31.7274 18.8891 24.9469 13.4741 16.6047 13.4741C8.26249 13.4741 1.47559 18.8955 1.47559 24.695C1.47559 26.1497 1.89334 27.5274 2.66458 28.777C4.95901 27.0212 10.3448 25.7908 16.5983 25.7908Z" fill="#D4ECF7"/>
<path d="M16.5976 25.8295C22.851 25.8295 28.2111 27.0535 30.5056 28.7965C31.2704 27.5533 31.701 26.182 31.701 24.7465C31.701 18.9855 24.927 13.6025 16.5976 13.6025C8.26819 13.6025 1.49414 18.9855 1.49414 24.7465C1.49414 26.1884 1.9119 27.5533 2.68313 28.7965C4.97757 27.0535 10.3505 25.8295 16.5976 25.8295Z" fill="#DAEEF8"/>
<path d="M16.5968 25.8741C22.8375 25.8741 28.1976 27.0853 30.4856 28.8155C31.2504 27.5787 31.681 26.2266 31.681 24.7911C31.681 19.075 24.9198 13.7305 16.5968 13.7305C8.27389 13.7305 1.5127 19.0814 1.5127 24.7911C1.5127 26.2266 1.93045 27.5787 2.70169 28.8155C4.9897 27.0853 10.3627 25.8741 16.5968 25.8741Z" fill="#DFF1F9"/>
<path d="M16.5985 25.9123C22.8327 25.9123 28.1799 27.117 30.4679 28.8344C31.2263 27.6041 31.6633 26.2647 31.6633 24.8421C31.6633 19.1708 24.9086 13.8647 16.6049 13.8647C8.30123 13.8647 1.54004 19.1772 1.54004 24.8421C1.54004 26.2647 1.95779 27.6041 2.72261 28.8344C5.01061 27.117 10.3707 25.9123 16.5985 25.9123Z" fill="#E5F3FA"/>
<path d="M16.5978 25.951C22.8255 25.951 28.1663 27.1494 30.4415 28.8476C31.1999 27.63 31.6305 26.2971 31.6305 24.8873C31.6305 19.2608 24.8886 13.9868 16.5913 13.9868C8.29408 13.9868 1.55859 19.2672 1.55859 24.8937C1.55859 26.3035 1.97635 27.6364 2.74116 28.854C5.02274 27.1494 10.3764 25.9574 16.5978 25.9574V25.951Z" fill="#EBF6FB"/>
<path d="M16.598 25.9961C22.8129 25.9961 28.1473 27.1816 30.4225 28.867C31.1808 27.6622 31.6114 26.3357 31.6114 24.9387C31.6114 19.3571 24.876 14.1216 16.5916 14.1216C8.30718 14.1216 1.57812 19.3635 1.57812 24.9387C1.57812 26.3421 1.99588 27.6558 2.76069 28.867C5.04227 27.1816 10.3895 25.9961 16.598 25.9961Z" fill="#F1F8FD"/>
<path d="M16.5977 26.0343C22.8062 26.0343 28.1341 27.2134 30.4029 28.886C31.1612 27.6876 31.5919 26.3803 31.5919 24.9898C31.5919 19.453 24.8692 14.2495 16.5977 14.2495C8.32615 14.2495 1.60352 19.4594 1.60352 24.9898C1.60352 26.3803 2.01484 27.6876 2.77966 28.886C5.05481 27.2134 10.3956 26.0343 16.5977 26.0343Z" fill="#F7FBFE"/>
<path d="M16.597 26.073C22.799 26.073 28.1141 27.2393 30.3829 28.899C31.1412 27.7135 31.5718 26.4126 31.5718 25.0349C31.5718 19.543 24.8556 14.3779 16.597 14.3779C8.33827 14.3779 1.62207 19.5494 1.62207 25.0413C1.62207 26.419 2.0334 27.7135 2.79821 28.9055C5.07336 27.2457 10.4078 26.0794 16.6034 26.0794L16.597 26.073Z" fill="white"/>
</g>
<path d="M16.597 20.5874C11.1726 20.5874 6.14028 21.4974 1.97559 23.0482C4.46926 28.6298 10.08 32.5132 16.6098 32.5132C23.1397 32.5132 28.7183 28.6298 31.2184 23.0482C27.0666 21.4974 22.0342 20.5874 16.6034 20.5874H16.597Z" fill="#0083CA"/>
</svg>
