<svg xmlns="http://www.w3.org/2000/svg" width="24" height="24" viewBox="0 0 24 24" fill="none">
  <path d="M19 5.5L19 4L5 4V5.5L19 5.5ZM20.5 7V17C20.5 17.8284 19.8284 18.5 19 18.5L5 18.5C4.17157 18.5 3.5 17.8284 3.5 17L3.5 7C3.5 6.17157 4.17157 5.5 5 5.5V4L4.8457 4.00391C3.26055 4.08421 2 5.39489 2 7L2 17C2 18.6569 3.34315 20 5 20L19 20C20.6569 20 22 18.6569 22 17V7C22 5.39489 20.7394 4.08421 19.1543 4.00391L19 4L19 5.5C19.8284 5.5 20.5 6.17157 20.5 7Z" fill="#4C4F58"/>
  <path d="M5 16C5 16.5523 5.44772 17 6 17H7C7.55228 17 8 16.5523 8 16L8 8C8 7.44772 7.55228 7 7 7H6C5.44772 7 5 7.44771 5 8L5 16Z" fill="#4C4F58"/>
</svg>