<svg xmlns="http://www.w3.org/2000/svg" width="24" height="24" viewBox="0 0 24 24" fill="none">
  <path d="M12 1C18.0751 1 23 5.92487 23 12C23 18.0751 18.0751 23 12 23C5.92487 23 1 18.0751 1 12C1 5.92487 5.92487 1 12 1ZM16.6973 9.2832C16.3013 8.89842 15.6681 8.90701 15.2832 9.30273L11.1406 13.5645L8.7168 11.0703C8.33186 10.6746 7.69867 10.666 7.30273 11.0508C6.90697 11.4357 6.89841 12.0689 7.2832 12.4648L10.4238 15.6973L11.1406 16.4346L11.8584 15.6973L16.7168 10.6973C17.1016 10.3013 17.093 9.66813 16.6973 9.2832Z" fill="#1BA0FF"/>
</svg>