<svg xmlns="http://www.w3.org/2000/svg" width="16" height="16" viewBox="0 0 16 16" fill="none">
  <path d="M8 2C11.3137 2 14 4.68629 14 8C14 11.3137 11.3137 14 8 14C4.68629 14 2 11.3137 2 8C2 4.68629 4.68629 2 8 2ZM10.3535 5.64648C10.1583 5.45122 9.84175 5.45122 9.64648 5.64648L8 7.29297L6.35352 5.64648C6.15825 5.45122 5.84175 5.45122 5.64648 5.64648C5.45122 5.84175 5.45122 6.15825 5.64648 6.35352L7.29297 8L5.64648 9.64648C5.45122 9.84175 5.45122 10.1583 5.64648 10.3535C5.84175 10.5487 6.15827 10.5488 6.35352 10.3535L8 8.70703L9.64648 10.3535C9.84175 10.5487 10.1583 10.5488 10.3535 10.3535C10.5488 10.1583 10.5487 9.84175 10.3535 9.64648L8.70703 8L10.3535 6.35352C10.5488 6.15827 10.5487 5.84175 10.3535 5.64648Z" fill="#4C4F58"/>
</svg>