<svg xmlns="http://www.w3.org/2000/svg" width="24" height="24" viewBox="0 0 24 24" fill="none">
  <path d="M10.9274 3.95348C11.3237 3.18217 12.4263 3.18217 12.8226 3.95348L14.1471 6.53139C14.8251 7.85085 15.8991 8.92493 17.2186 9.60287L19.7965 10.9274C20.5678 11.3237 20.5678 12.4263 19.7965 12.8226L17.2186 14.1471C15.8991 14.8251 14.8251 15.8991 14.1471 17.2186L12.8226 19.7965C12.4263 20.5678 11.3237 20.5678 10.9274 19.7965L9.60287 17.2186C8.92493 15.8991 7.85085 14.8251 6.53139 14.1471L3.95348 12.8226C3.18217 12.4263 3.18217 11.3237 3.95348 10.9274L6.53139 9.60287C7.85085 8.92493 8.92493 7.85085 9.60287 6.53139L10.9274 3.95348Z" fill="url(#paint0_linear_104_1187)"/>
  <circle cx="18.4501" cy="18.4501" r="1.5" fill="#7283ED"/>
  <defs>
    <linearGradient id="paint0_linear_104_1187" x1="10.4799" y1="2.71955" x2="25.1857" y2="12.4755" gradientUnits="userSpaceOnUse">
      <stop stop-color="#24CFFF"/>
      <stop offset="1" stop-color="#C12FFF"/>
    </linearGradient>
  </defs>
</svg>