<svg xmlns="http://www.w3.org/2000/svg" width="24" height="24" viewBox="0 0 24 24" fill="none">
  <path fill-rule="evenodd" clip-rule="evenodd" d="M15.5172 3C17.5135 3 19.2042 4.47195 19.4791 6.44922L20.8688 16.4492C21.2028 18.854 19.3347 20.9998 16.9068 21H7.09435C4.66661 21 2.79873 18.8548 3.13243 16.4502L4.5211 6.4502C4.79571 4.47262 6.48647 3.00001 8.48302 3H15.5172ZM15.0006 6.25C14.5864 6.25 14.2506 6.58579 14.2506 7V7.2998C14.2506 8.69908 13.1982 9.74977 12.0006 9.75C10.8028 9.75 9.7506 8.69923 9.7506 7.2998V7C9.7506 6.58592 9.41463 6.25022 9.0006 6.25C8.58638 6.25 8.2506 6.58579 8.2506 7V7.2998C8.2506 9.435 9.88467 11.25 12.0006 11.25C14.1163 11.2498 15.7506 9.43486 15.7506 7.2998V7C15.7506 6.58592 15.4146 6.25022 15.0006 6.25Z" fill="#4C4F58"/>
</svg>