<svg width="current" height="current" viewBox="0 0 20 20" fill="none" xmlns="http://www.w3.org/2000/svg">
<path d="M5.18783 8.64649V12.539C5.18783 12.5411 5.18707 12.5432 5.18569 12.5449L3.53089 14.5306C3.48566 14.5849 3.52426 14.6673 3.59491 14.6673H17.4057C17.4764 14.6673 17.515 14.5849 17.4698 14.5306L15.815 12.5449C15.8136 12.5432 15.8128 12.5411 15.8128 12.539V8.64648C15.8128 5.71247 13.4343 3.33398 10.5003 3.33398C7.56631 3.33398 5.18783 5.71247 5.18783 8.64649Z" stroke="current" stroke-width="1.5" stroke-linecap="round"/>
<path d="M8.375 15.3753V14.9503C8.375 14.7938 8.50185 14.667 8.65833 14.667H12.3417C12.4981 14.667 12.625 14.7938 12.625 14.9503V15.3753C12.625 16.5489 11.6736 17.5003 10.5 17.5003C9.3264 17.5003 8.375 16.5489 8.375 15.3753Z" stroke="current" stroke-width="1.5" stroke-linecap="round"/>
</svg>
