<svg xmlns="http://www.w3.org/2000/svg" width="18" height="20" viewBox="0 0 18 20" fill="none">
  <path fill-rule="evenodd" clip-rule="evenodd" d="M7.38116 0.476862C8.36968 -0.15895 9.63838 -0.158958 10.6269 0.476862L13.4244 2.27642L16.3815 3.79949C17.4265 4.33766 18.061 5.43648 18.0046 6.61053L17.8449 9.93279L18.0046 13.2554C18.061 14.4295 17.4265 15.5283 16.3815 16.0665L13.4244 17.5895L10.6269 19.3891C9.63841 20.0249 8.36964 20.0248 7.38116 19.3891L4.58368 17.5895L1.62616 16.0665C0.581281 15.5283 -0.052922 14.4294 0.00347489 13.2554L0.163143 9.93279L0.00347489 6.61053C-0.0529356 5.43655 0.581308 4.3377 1.62616 3.79949L4.58368 2.27642L7.38116 0.476862ZM9.58905 5.04022C9.34424 4.56391 8.66304 4.56387 8.41827 5.04022L7.60052 6.6325C7.18179 7.4474 6.5181 8.11113 5.70318 8.52984L4.1109 9.34759C3.63475 9.59242 3.63474 10.2735 4.1109 10.5184L5.70318 11.3365C6.51814 11.7552 7.18179 12.4185 7.60052 13.2335L8.41827 14.8257C8.66302 15.3021 9.34422 15.302 9.58905 14.8257L10.4072 13.2335C10.8259 12.4186 11.4893 11.7552 12.3041 11.3365L13.8964 10.5184C14.3728 10.2736 14.3728 9.59236 13.8964 9.34759L12.3041 8.52984C11.4892 8.11111 10.8259 7.44743 10.4072 6.6325L9.58905 5.04022ZM13.0651 13.0679C12.5535 13.068 12.1386 13.4828 12.1386 13.9944C12.1387 14.5059 12.5536 14.9205 13.0651 14.9206C13.5766 14.9205 13.9911 14.5059 13.9913 13.9944C13.9913 13.4828 13.5767 13.068 13.0651 13.0679Z" fill="url(#paint0_linear_104_721)"/>
  <defs>
    <linearGradient id="paint0_linear_104_721" x1="7.52618" y1="-0.765945" x2="24.0018" y2="9.14191" gradientUnits="userSpaceOnUse">
      <stop stop-color="#24CFFF"/>
      <stop offset="1" stop-color="#C12FFF"/>
    </linearGradient>
  </defs>
</svg>