<svg xmlns="http://www.w3.org/2000/svg" width="40" height="40" viewBox="0 0 40 40" fill="none">
  <path d="M40 20C40 31.0457 31.0457 40 20 40C8.9543 40 0 31.0457 0 20C0 8.9543 8.9543 0 20 0C31.0457 0 40 8.9543 40 20Z" fill="#27359D"/>
  <path d="M19.4609 15.2359C19.8951 14.5517 20.3294 13.8672 20.7649 13.1808C20.7901 13.2139 20.8116 13.2411 20.8304 13.2648C20.8615 13.3042 20.8853 13.3342 20.9058 13.366C21.389 14.1188 21.8727 14.8714 22.3564 15.624C23.7313 17.7633 25.1063 19.9027 26.4691 22.05C26.9634 22.8292 27.4382 23.6368 27.2579 24.667C27.2548 24.717 27.2509 24.7367 27.2491 24.7422L27.248 24.7434C27.248 24.7434 27.2484 24.7442 27.2491 24.7422C27.3145 24.6714 27.3586 24.6107 27.3765 24.5831C27.6729 24.1213 27.9712 23.6601 28.2696 23.1986C29.0008 22.0679 29.7326 20.9361 30.4405 19.7933C30.8744 19.0926 30.8489 18.3386 30.4 17.6349C29.1207 15.6293 27.8346 13.6275 26.5433 11.6295C26.0524 10.8703 25.3336 10.4963 24.4358 10.4918C23.1481 10.4853 21.8603 10.4871 20.5726 10.4889C20.2152 10.4894 19.8579 10.4899 19.5006 10.4903C19.4262 10.4908 19.3437 10.4906 19.2466 10.4905C19.1922 10.4904 19.1331 10.4903 19.0683 10.4903C19.3579 10.9457 19.6425 11.3931 19.929 11.8433C20.1822 12.2413 20.4369 12.6414 20.6975 13.0512C20.5055 13.0512 20.3226 13.0508 20.1459 13.0504C19.7755 13.0496 19.4321 13.0489 19.0891 13.0519C18.7094 13.0557 18.3294 13.0558 17.9494 13.0559C17.0333 13.0562 16.1169 13.0565 15.2032 13.1074C13.8564 13.1823 13.1504 14.1476 13.3835 15.4652C13.5274 16.2769 13.8714 17.0068 14.3151 17.6903C14.7427 18.3494 15.1793 19.0022 15.6159 19.6549C15.7265 19.8202 15.837 19.9855 15.9474 20.1508C15.9858 20.2089 16.0306 20.2622 16.084 20.3256C16.1098 20.3563 16.1377 20.3895 16.1678 20.4266C17.2746 18.6814 18.3671 16.9596 19.4609 15.2359Z" fill="white"/>
  <path d="M20.5393 24.7643C20.1051 25.4485 19.6708 26.133 19.2353 26.8194C19.2102 26.7864 19.1887 26.7592 19.1698 26.7354C19.1387 26.6961 19.1149 26.6661 19.0944 26.6343C18.6113 25.8814 18.1276 25.1288 17.6439 24.3762C16.2689 22.237 14.8939 20.0975 13.5311 17.9503C13.0368 17.1711 12.562 16.3635 12.7423 15.3332C12.7454 15.2832 12.7493 15.2635 12.7512 15.258L12.7522 15.2569C12.7522 15.2569 12.7518 15.256 12.7512 15.258C12.6857 15.3288 12.6416 15.3895 12.6238 15.4171C12.3273 15.8789 12.029 16.3402 11.7306 16.8016C10.9995 17.9324 10.2677 19.0642 9.55976 20.2069C9.12582 20.9077 9.1513 21.6616 9.60022 22.3654C10.8796 24.3709 12.1656 26.3727 13.457 28.3708C13.9478 29.13 14.6666 29.504 15.5644 29.5085C16.8522 29.5149 18.1399 29.5131 19.4277 29.5113C19.785 29.5108 20.1423 29.5103 20.4996 29.51C20.6158 29.5092 20.7515 29.51 20.9319 29.51C20.6178 29.0159 20.3094 28.5313 19.9983 28.0424C19.7691 27.6821 19.5384 27.3195 19.3027 26.9491C19.4947 26.9491 19.6776 26.9494 19.8544 26.9498C20.2248 26.9506 20.5681 26.9514 20.9111 26.9483C21.2907 26.9446 21.6707 26.9444 22.0506 26.9443C22.9668 26.944 23.8832 26.9437 24.797 26.8928C26.1438 26.8179 26.8498 25.8526 26.6167 24.535C26.4728 23.7234 26.1288 22.9934 25.6851 22.3099C25.2577 21.651 24.8211 20.9984 24.3846 20.3458C24.274 20.1804 24.1633 20.0149 24.0528 19.8494C24.0145 19.7914 23.9696 19.7381 23.9163 19.6747C23.8904 19.6439 23.8626 19.6108 23.8325 19.5736C22.7257 21.3189 21.6331 23.0407 20.5393 24.7643Z" fill="white"/>
</svg>