<svg xmlns="http://www.w3.org/2000/svg" width="40" height="40" viewBox="0 0 40 40" fill="none">
  <path d="M40 20C40 31.0457 31.0457 40 20 40C8.9543 40 0 31.0457 0 20C0 8.9543 8.9543 0 20 0C31.0457 0 40 8.9543 40 20Z" fill="#00C7A9"/>
  <path d="M12.2588 14V18.2589C16.5272 18.2589 19.9999 21.7315 19.9999 26H24.2588C24.2588 19.3727 18.8861 14 12.2588 14Z" fill="white"/>
  <path d="M12.2586 25.9999H8V18.2588L12.2588 18.2589L12.2586 25.9999ZM32 14V18.2588C27.7313 18.2588 24.2588 21.7316 24.2588 26H19.9999C19.9997 19.3727 25.3726 14 32 14Z" fill="white"/>
</svg>