<svg xmlns="http://www.w3.org/2000/svg" width="40" height="40" viewBox="0 0 40 40" fill="none">
  <path d="M40 20C40 31.0457 31.0457 40 20 40C8.9543 40 0 31.0457 0 20C0 8.9543 8.9543 0 20 0C31.0457 0 40 8.9543 40 20Z" fill="#A8D4FA"/>
  <path d="M32 19.9769C32 26.5849 26.631 31.9997 20.0231 31.9997C13.3692 31.9997 8.00024 26.6308 8.00024 19.9769C8.00024 13.369 13.3692 8 20.0231 8C26.5851 8 32 13.369 32 19.9769Z" fill="white"/>
  <path d="M19.9775 31.4033C26.2642 31.4033 31.4037 26.3097 31.4037 19.9771C31.4037 13.6903 26.2642 8.55078 19.9775 8.55078C13.6907 8.55078 8.55119 13.6903 8.55119 19.9771C8.55119 26.2638 13.6907 31.4033 19.9775 31.4033Z" fill="#007BC7"/>
  <path d="M20.0001 31.426C26.2869 31.426 31.4264 26.3324 31.4264 19.9998C31.4264 13.713 26.2869 8.57349 20.0001 8.57349C13.7134 8.57349 8.57385 13.713 8.57385 19.9998C8.57385 26.2865 13.7134 31.426 20.0001 31.426Z" fill="#007BC7"/>
  <path d="M20.0472 25.5063C25.049 25.5063 29.3626 26.883 31.1981 28.9021C31.8406 27.4795 32.1618 25.9193 32.1618 24.2673C32.1618 17.7052 26.7469 12.3821 20.0472 12.3821C13.3474 12.3821 7.93257 17.7052 7.93257 24.2673C7.93257 25.9193 8.25379 27.4795 8.89624 28.9021C10.7318 26.9288 15.0453 25.5063 20.0472 25.5063Z" fill="#007BC7"/>
  <path d="M20.0459 25.5051C25.0478 25.5051 29.3613 26.8817 31.1969 28.8549C31.7934 27.4324 32.1605 25.8722 32.1605 24.2661C32.1605 17.7499 26.7457 12.4727 20.0459 12.4727C13.3921 12.4727 7.93134 17.7499 7.93134 24.2661C7.93134 25.9181 8.25256 27.4324 8.895 28.8549C10.7305 26.9276 15.0441 25.5051 20.0459 25.5051Z" fill="#007DC8"/>
  <path d="M20.0459 25.553C25.0478 25.553 29.3154 26.9296 31.151 28.9028C31.7475 27.5262 32.1146 25.966 32.1146 24.3599C32.1146 17.8896 26.6998 12.6583 20.0459 12.6583C13.3921 12.6583 7.9772 17.9355 7.9772 24.3599C7.9772 25.966 8.29842 27.5262 8.94086 28.9028C10.7764 26.9296 15.0441 25.553 20.0459 25.553Z" fill="#007EC9"/>
  <path d="M20.0459 25.553C25.0478 25.553 29.3154 26.9288 31.1509 28.8561C31.7475 27.4794 32.1146 25.966 32.1146 24.3599C32.1146 17.9813 26.6997 12.7492 20.0918 12.7492C13.4379 12.7492 8.06894 17.9805 8.06894 24.359C8.06894 25.9651 8.39016 27.4794 9.0326 28.8561C10.7764 26.9288 15.0899 25.553 20.0459 25.553Z" fill="#0080CA"/>
  <path d="M20.0459 25.553C25.0019 25.553 29.2695 26.9288 31.105 28.8102C31.7016 27.4335 32.0687 25.9192 32.0687 24.3131C32.0687 17.9805 26.6997 12.7492 20.0459 12.7492C13.4379 12.7492 8.06894 17.9346 8.06894 24.3131C8.06894 25.9192 8.39016 27.4335 9.0326 28.8102C10.8223 26.9288 15.0899 25.553 20.0459 25.553Z" fill="#0082CB"/>
  <path d="M20.0459 25.5982C25.0019 25.5982 29.2695 26.929 31.0592 28.8563C31.6557 27.4796 32.0228 26.0112 32.0228 24.4051C32.0228 18.1183 26.6538 12.9329 20.0459 12.9329C13.4379 12.9329 8.06894 18.1183 8.06894 24.4051C8.06894 25.9653 8.39016 27.4794 9.0326 28.8561C10.8223 26.9288 15.0899 25.5982 20.0459 25.5982Z" fill="#0083CC"/>
  <path d="M20.0459 25.5982C25.0019 25.5982 29.2233 26.9288 31.0588 28.8103C31.6554 27.4336 32.0228 25.9653 32.0228 24.4051C32.0228 18.1642 26.6535 13.0246 20.0914 13.0246C13.4835 13.0246 8.1604 18.1641 8.1604 24.4049C8.1604 25.9652 8.48162 27.4336 9.12406 28.8103C10.8678 26.9288 15.0899 25.5982 20.0459 25.5982Z" fill="#0085CE"/>
  <path d="M20.0459 25.5982C24.956 25.5982 29.2232 26.9288 31.0129 28.8102C31.6094 27.4794 31.9766 26.011 31.9766 24.4508C31.9766 18.2558 26.6535 13.1163 20.0455 13.1163C13.4834 13.1163 8.16035 18.2558 8.16035 24.4508C8.16035 26.011 8.48162 27.4795 9.12406 28.8103C10.8678 26.9288 15.0899 25.5982 20.0459 25.5982Z" fill="#0087CF"/>
  <path d="M20.0459 25.5982C24.956 25.5982 29.1774 26.9287 30.967 28.7643C31.5636 27.4335 31.9307 25.9651 31.9307 24.4508C31.9307 18.3017 26.6076 13.208 20.0456 13.208C13.4835 13.208 8.16035 18.3017 8.16035 24.4508C8.16035 26.011 8.48162 27.4335 9.07817 28.7643C10.9137 26.9287 15.1358 25.5982 20.0459 25.5982Z" fill="#0089D0"/>
  <path d="M20.0458 25.644C24.9559 25.644 29.1774 26.9287 30.967 28.7643C31.5636 27.4335 31.8851 26.0111 31.8851 24.4509C31.8851 18.3477 26.562 13.3 20.0458 13.3C13.5296 13.3 8.20654 18.3936 8.20654 24.4509C8.20654 25.9652 8.52776 27.4337 9.12432 28.7644C10.914 26.9289 15.1357 25.644 20.0458 25.644Z" fill="#008BD1"/>
  <path d="M20.0458 25.644C24.9559 25.644 29.1318 26.9287 30.9214 28.7643C31.518 27.4794 31.8392 26.011 31.8392 24.4966C31.8392 18.4852 26.562 13.4375 19.9999 13.4375C13.4837 13.4375 8.20654 18.4852 8.20654 24.4966C8.20654 26.011 8.52776 27.4337 9.12432 28.7644C10.9599 26.9289 15.1357 25.644 20.0458 25.644Z" fill="#008CD2"/>
  <path d="M20.0458 25.644C24.91 25.644 29.1317 26.9288 30.9214 28.7185C31.518 27.4336 31.8392 26.011 31.8392 24.4966C31.8392 18.5311 26.562 13.4834 20.0458 13.4834C13.5296 13.4834 8.25241 18.4853 8.25241 24.4967C8.25241 26.011 8.57363 27.4336 9.17018 28.7185C10.9598 26.9288 15.1357 25.644 20.0458 25.644Z" fill="#008ED3"/>
  <path d="M20.0458 25.644C24.91 25.644 29.0858 26.9291 30.8755 28.7188C31.472 27.4339 31.7933 26.0113 31.7933 24.5429C31.7933 18.6233 26.5161 13.6214 20.0458 13.6214C13.5755 13.6214 8.29828 18.6233 8.29828 24.5429C8.29828 26.0113 8.6195 27.4339 9.21605 28.7188C11.0057 26.9291 15.1816 25.644 20.0458 25.644Z" fill="#0090D4"/>
  <path d="M20.0458 25.6899C24.91 25.6899 29.0399 26.9289 30.8296 28.7185C31.4262 27.4336 31.7474 26.057 31.7474 24.5885C31.7474 18.7148 26.5161 13.7588 19.9999 13.7588C13.5296 13.7588 8.29828 18.7148 8.29828 24.5885C8.29828 26.057 8.6195 27.4798 9.21605 28.7188C11.0057 26.9291 15.1816 25.6899 20.0458 25.6899Z" fill="#0092D5"/>
  <path d="M20.0458 25.6899C24.8641 25.6899 29.0396 26.9289 30.8293 28.6727C31.4258 27.3878 31.7474 26.0111 31.7474 24.5885C31.7474 18.7607 26.5157 13.8048 20.0454 13.8048C13.5751 13.8048 8.34383 18.7607 8.34383 24.5886C8.34383 26.057 8.66505 27.4337 9.2616 28.6727C11.0513 26.9289 15.1816 25.6899 20.0458 25.6899Z" fill="#0094D6"/>
  <path d="M20.0458 25.6899C24.8641 25.6899 28.9941 26.9288 30.7838 28.6726C31.3803 27.4336 31.7015 26.0569 31.7015 24.5885C31.7015 18.8065 26.4702 13.8964 20.0458 13.8964C13.6214 13.8964 8.39011 18.8065 8.39011 24.5885C8.39011 26.0569 8.71133 27.3877 9.30788 28.6726C11.0516 26.9288 15.1816 25.6899 20.0458 25.6899Z" fill="#0096D7"/>
  <path d="M20.0457 25.7357C24.864 25.7357 28.994 26.9747 30.7378 28.6726C31.3343 27.4336 31.6555 26.0569 31.6555 24.6344C31.6555 18.8983 26.4242 14.0341 20.0457 14.0341C13.6213 14.0341 8.43588 18.9442 8.43588 24.6344C8.43588 26.0569 8.7571 27.4336 9.35365 28.6726C11.0974 26.9288 15.2274 25.7357 20.0457 25.7357Z" fill="#0098D8"/>
  <path d="M20.0457 25.7357C24.864 25.7357 28.9481 26.9288 30.7378 28.6726C31.3343 27.4336 31.6555 26.1029 31.6555 24.6803C31.6555 19.036 26.4701 14.1718 20.0457 14.1718C13.6672 14.1718 8.43588 19.036 8.43588 24.6803C8.43588 26.1029 8.7571 27.4336 9.35365 28.6726C11.0974 26.9288 15.2274 25.7357 20.0457 25.7357Z" fill="#009AD9"/>
  <path d="M20.0457 25.7357C24.8181 25.7357 28.9481 26.929 30.6919 28.6269C31.2885 27.3879 31.6097 26.0571 31.6097 24.6805C31.6097 19.0821 26.4243 14.2179 20.0457 14.2179C13.6672 14.2179 8.4818 19.0362 8.4818 24.6805C8.4818 26.103 8.80302 27.4338 9.39957 28.6269C11.1433 26.929 15.2274 25.7357 20.0457 25.7357Z" fill="#009CDA"/>
  <path d="M20.0457 25.7357C24.8181 25.7357 28.9022 26.9289 30.6919 28.5809C31.2884 27.3878 31.6097 26.0571 31.6097 24.6805C31.6097 19.1279 26.4242 14.3095 20.0916 14.3095C13.7131 14.3095 8.57353 19.1278 8.57353 24.6803C8.57353 26.057 8.89475 27.3878 9.49131 28.5809C11.1433 26.9289 15.2274 25.7357 20.0457 25.7357Z" fill="#009EDB"/>
  <path d="M20.0453 25.7816C24.8178 25.7816 28.9019 26.9747 30.6456 28.6267C31.2422 27.4336 31.5634 26.1028 31.5634 24.7262C31.5634 19.2195 26.4239 14.4471 20.0453 14.4471C13.7127 14.4471 8.5273 19.2195 8.5273 24.7262C8.5273 26.1028 8.84852 27.4336 9.44507 28.6267C11.1888 26.9288 15.2729 25.7816 20.0453 25.7816Z" fill="#00A0DC"/>
  <path d="M19.9995 25.7818C24.726 25.7818 28.8101 26.9291 30.5538 28.5811C31.1504 27.388 31.4716 26.1031 31.4716 24.7264C31.4716 19.2657 26.3321 14.4933 19.9995 14.4933C13.6668 14.4933 8.5273 19.2654 8.5273 24.7262C8.5273 26.1028 8.84852 27.388 9.44507 28.5811C11.1888 26.9291 15.2729 25.7818 19.9995 25.7818Z" fill="#00A2DD"/>
  <path d="M19.9995 25.7818C24.726 25.7818 28.8101 26.9291 30.5538 28.5811C31.1504 27.388 31.4719 26.1028 31.4719 24.7721C31.4719 19.3572 26.3324 14.6307 20.0457 14.6307C13.713 14.6307 8.6194 19.3572 8.6194 24.7721C8.6194 26.1028 8.94062 27.4336 9.53717 28.5808C11.2351 26.9288 15.2729 25.7818 19.9995 25.7818Z" fill="#00A4DE"/>
  <path d="M19.9998 25.8275C24.7263 25.8275 28.7645 26.9748 30.5083 28.5809C31.1048 27.4336 31.4261 26.1488 31.4261 24.818C31.4261 19.449 26.3324 14.7684 19.9998 14.7684C13.7131 14.7684 8.57353 19.4949 8.57353 24.818C8.57353 26.1488 8.89475 27.4337 9.49131 28.5809C11.2351 26.9289 15.2733 25.8275 19.9998 25.8275Z" fill="#00A6DF"/>
  <path d="M19.9998 25.8275C24.7263 25.8275 28.7645 26.9748 30.4624 28.535C31.0589 27.3878 31.3802 26.1488 31.3802 24.818C31.3802 19.5408 26.2865 14.8602 19.9998 14.8602C13.713 14.8602 8.6194 19.5408 8.6194 24.818C8.6194 26.1488 8.94062 27.3878 9.53717 28.535C11.2809 26.9289 15.3192 25.8275 19.9998 25.8275Z" fill="#00A9E0"/>
  <path d="M19.9998 25.8275C24.6804 25.8275 28.7186 26.9289 30.4624 28.535C31.0589 27.3878 31.3802 26.1488 31.3802 24.818C31.3802 19.5867 26.2868 14.9061 20.0459 14.9061C13.8051 14.9061 8.71141 19.5408 8.71141 24.818C8.71141 26.1488 9.03263 27.3878 9.62918 28.535C11.2812 26.9289 15.3192 25.8275 19.9998 25.8275Z" fill="#00ABE1"/>
  <path d="M19.9998 25.8275C24.6804 25.8275 28.7186 26.929 30.4165 28.4893C31.013 27.342 31.3343 26.1489 31.3343 24.8182C31.3343 19.6327 26.2406 14.998 19.9998 14.998C13.7589 14.998 8.66527 19.6327 8.66527 24.8182C8.66527 26.103 8.98649 27.342 9.58304 28.4893C11.3268 26.929 15.3192 25.8275 19.9998 25.8275Z" fill="#00ADE2"/>
  <path d="M20.0001 25.8735C24.6807 25.8735 28.673 26.9748 30.4168 28.535C31.0134 27.4337 31.3346 26.1947 31.3346 24.9098C31.3346 19.7703 26.2868 15.1815 20.046 15.1815C13.8051 15.1815 8.75737 19.7703 8.75737 24.9098C8.75737 26.1947 9.07852 27.4337 9.62918 28.535C11.3271 26.9289 15.3194 25.8735 20.0001 25.8735Z" fill="#01AFE3"/>
  <path d="M20.0001 25.8735C24.6348 25.8735 28.673 26.9748 30.3709 28.4892C30.9675 27.3878 31.2428 26.1947 31.2428 24.9098C31.2428 19.8162 26.1951 15.2273 20.0001 15.2273C13.8051 15.2273 8.75737 19.8162 8.75737 24.9098C8.75737 26.1947 9.07859 27.3878 9.62925 28.4892C11.373 26.9289 15.3653 25.8735 20.0001 25.8735Z" fill="#14B1E4"/>
  <path d="M20.0001 25.8735C24.6348 25.8735 28.6271 26.9288 30.325 28.4431C30.8756 27.3418 31.1968 26.1487 31.1968 24.9097C31.1968 19.8619 26.1491 15.319 19.9541 15.319C13.7592 15.319 8.71141 19.8619 8.71141 24.9097C8.71141 26.1487 9.03263 27.3877 9.5833 28.4431C11.373 26.9747 15.3653 25.8735 20.0001 25.8735Z" fill="#20B4E5"/>
  <path d="M20.0001 25.8735C24.6348 25.8735 28.6271 26.9288 30.325 28.4431C30.8756 27.3877 31.1968 26.1945 31.1968 24.9555C31.1968 19.9537 26.1949 15.4566 20 15.4566C13.805 15.4566 8.80315 19.9996 8.80315 24.9555C8.80315 26.1945 9.12436 27.3876 9.67503 28.4431C11.4188 26.9746 15.3653 25.8735 20.0001 25.8735Z" fill="#28B6E6"/>
  <path d="M19.9996 25.9192C24.6344 25.9192 28.5808 26.9747 30.2787 28.4431C30.8294 27.3877 31.1506 26.1946 31.1506 24.9556C31.1506 20.0455 26.1487 15.5484 19.9996 15.5484C13.8506 15.5484 8.84869 20.0455 8.84869 24.9556C8.84869 26.1946 9.16992 27.3877 9.72058 28.4431C11.4185 26.9747 15.3649 25.9192 19.9996 25.9192Z" fill="#30B8E7"/>
  <path d="M19.9996 25.9192C24.5885 25.9192 28.5808 26.9747 30.2787 28.4431C30.8294 27.3877 31.1506 26.2406 31.1506 25.0016C31.1506 20.0915 26.1487 15.6403 19.9996 15.6403C13.8506 15.6403 8.84869 20.0915 8.84869 25.0016C8.84869 26.2406 9.16992 27.3877 9.72058 28.4431C11.4185 26.9747 15.4108 25.9192 19.9996 25.9192Z" fill="#3FBAE8"/>
  <path d="M20 25.965C24.5889 25.965 28.5812 27.0205 30.2332 28.4889C30.7838 27.4335 31.1051 26.2863 31.1051 25.0473C31.1051 20.1831 26.1032 15.7319 19.9541 15.7319C13.805 15.7319 8.80319 20.1831 8.80319 25.0473C8.80319 26.2863 9.12441 27.4335 9.67507 28.4889C11.4647 27.0205 15.4112 25.965 20 25.965Z" fill="#4CBDE9"/>
  <path d="M20 26.0111C24.5888 26.0111 28.5353 27.0205 30.2332 28.4889C30.7838 27.4335 31.105 26.2864 31.105 25.0933C31.105 20.275 26.1032 15.8238 20 15.8238C13.8509 15.8238 8.89493 20.2291 8.89493 25.0933C8.89493 26.2864 9.21615 27.4336 9.76681 28.4891C11.4647 27.0206 15.4111 26.0111 20 26.0111Z" fill="#56BFEA"/>
  <path d="M20 26.0111C24.5888 26.0111 28.5353 27.0205 30.2332 28.4889C30.7838 27.4335 31.105 26.3323 31.105 25.0933C31.105 20.275 26.1491 15.9157 20 15.9157C13.8509 15.9157 8.89493 20.3209 8.89493 25.0933C8.89493 26.2864 9.21615 27.4336 9.76681 28.4891C11.4647 27.0665 15.4111 26.0111 20 26.0111Z" fill="#60C1EA"/>
  <path d="M19.9997 26.057C24.5885 26.057 28.535 27.0666 30.187 28.535C30.7376 27.5255 31.0588 26.3783 31.0588 25.1851C31.0588 20.4127 26.1029 16.0533 19.9538 16.0533C13.8506 16.0533 8.84874 20.4127 8.84874 25.1851C8.84874 26.3783 9.16996 27.5255 9.72063 28.535C11.4644 27.0666 15.4108 26.057 19.9997 26.057Z" fill="#69C4EB"/>
  <path d="M20 26.103C24.5888 26.103 28.535 27.1125 30.187 28.535C30.7376 27.5255 31.0588 26.3783 31.0588 25.1851C31.0588 20.4586 26.1031 16.0993 20 16.0993C13.8968 16.0993 8.9408 20.4587 8.9408 25.1852C8.9408 26.3783 9.26202 27.4796 9.81268 28.5351C11.5106 27.0666 15.4111 26.103 20 26.103Z" fill="#71C6EC"/>
  <path d="M20 26.103C24.5888 26.103 28.4891 27.1125 30.187 28.535C30.7376 27.5255 31.0591 26.3781 31.0591 25.2309C31.0591 20.5503 26.1031 16.1908 20 16.1908C13.8968 16.1908 8.9408 20.5044 8.9408 25.2309C8.9408 26.424 9.26202 27.5255 9.81268 28.5351C11.5106 27.1125 15.4111 26.103 20 26.103Z" fill="#79C9ED"/>
  <path d="M20 26.1488C24.5429 26.1488 28.4891 27.1584 30.187 28.535C30.7376 27.5255 31.0591 26.424 31.0591 25.2309C31.0591 20.5503 26.1031 16.2827 20 16.2827C13.8968 16.2827 8.9408 20.5961 8.9408 25.2309C8.9408 26.3781 9.26202 27.5255 9.81268 28.5351C11.5106 27.1125 15.457 26.1488 20 26.1488Z" fill="#81CBEE"/>
  <path d="M20 26.1488C24.5429 26.1488 28.4893 27.1126 30.1413 28.5352C30.692 27.5256 31.0132 26.4243 31.0132 25.2771C31.0132 20.6423 26.0572 16.3747 19.9999 16.3747C13.8967 16.3747 8.98666 20.6423 8.98666 25.2771C8.98666 26.4243 9.30788 27.5256 9.85855 28.5352C11.5105 27.1585 15.457 26.1488 20 26.1488Z" fill="#88CEEF"/>
  <path d="M19.9999 26.1945C24.5429 26.1945 28.4893 27.1582 30.1413 28.5807C30.692 27.5712 31.0132 26.4698 31.0132 25.3226C31.0132 20.7338 26.0572 16.4661 19.9999 16.4661C13.9426 16.4661 8.98666 20.6879 8.98666 25.3226C8.98666 26.4698 9.30788 27.5712 9.85855 28.5807C11.5564 27.1582 15.457 26.1945 19.9999 26.1945Z" fill="#8FD0F0"/>
  <path d="M19.9999 26.2404C24.5429 26.2404 28.4434 27.2041 30.1413 28.5807C30.692 27.5712 31.0132 26.5158 31.0132 25.3686C31.0132 20.7797 26.1031 16.558 19.9999 16.558C13.9426 16.558 8.98666 20.7797 8.98666 25.3686C8.98666 26.5158 9.30788 27.6171 9.85855 28.5807C11.5564 27.2041 15.457 26.2404 19.9999 26.2404Z" fill="#96D3F1"/>
  <path d="M19.9999 26.2404C24.5429 26.2404 28.4431 27.2042 30.0951 28.5808C30.6458 27.6172 30.967 26.5158 30.967 25.3686C30.967 20.8256 26.0569 16.6498 19.9996 16.6498C13.9423 16.6498 9.03221 20.8256 9.03221 25.3686C9.03221 26.5158 9.35343 27.5713 9.90409 28.5808C11.5561 27.2042 15.457 26.2404 19.9999 26.2404Z" fill="#9CD5F1"/>
  <path d="M19.9996 26.2864C24.5426 26.2864 28.4431 27.2501 30.0951 28.6267C30.6458 27.6631 30.967 26.5617 30.967 25.4604C30.967 20.9633 26.0569 16.7875 19.9996 16.7875C13.9423 16.7875 9.03221 20.9633 9.03221 25.4604C9.03221 26.6076 9.35343 27.6631 9.90409 28.6267C11.5561 27.2501 15.4566 26.2864 19.9996 26.2864Z" fill="#A3D7F2"/>
  <path d="M19.9996 26.3325C24.5426 26.3325 28.4431 27.296 30.0951 28.6267C30.6458 27.6631 30.967 26.6076 30.967 25.4604C30.967 20.9633 26.0569 16.8335 19.9996 16.8335C13.9423 16.8335 9.03221 20.9633 9.03221 25.4604C9.03221 26.5618 9.35343 27.6631 9.90409 28.6267C11.602 27.2501 15.4566 26.3325 19.9996 26.3325Z" fill="#A9DAF3"/>
  <path d="M19.9996 26.3325C24.5426 26.3325 28.3975 27.296 30.0495 28.6267C30.6001 27.6631 30.9213 26.6077 30.9213 25.5063C30.9213 21.0551 26.0113 16.971 19.9999 16.971C13.9426 16.971 9.07835 21.101 9.07835 25.5063C9.07835 26.6077 9.39958 27.6631 9.95024 28.6267C11.6022 27.296 15.5025 26.3325 19.9996 26.3325Z" fill="#AFDCF4"/>
  <path d="M19.9999 26.3783C24.4969 26.3783 28.3975 27.296 30.0495 28.6727C30.6001 27.709 30.9213 26.6536 30.9213 25.5523C30.9213 21.147 26.0113 17.0629 19.9999 17.0629C13.9884 17.0629 9.07835 21.147 9.07835 25.5523C9.07835 26.6536 9.39958 27.709 9.95024 28.6727C11.6022 27.296 15.5028 26.3783 19.9999 26.3783Z" fill="#B4DFF5"/>
  <path d="M19.9999 26.3783C24.4969 26.3783 28.3975 27.296 30.0495 28.6267C30.6001 27.6631 30.9213 26.6536 30.9213 25.5523C30.9213 21.147 26.0113 17.1086 19.9999 17.1086C13.9884 17.1086 9.07835 21.147 9.07835 25.5523C9.07835 26.6536 9.39958 27.709 9.95024 28.6267C11.6022 27.3419 15.5028 26.3783 19.9999 26.3783Z" fill="#BAE1F6"/>
  <path d="M19.9999 26.4241C24.497 26.4241 28.3975 27.3419 30.0495 28.6727C30.6001 27.709 30.9214 26.6994 30.9214 25.5981C30.9214 21.2387 26.0572 17.2005 20.0458 17.2005C14.0344 17.2005 9.17018 21.2387 9.17018 25.5981C9.17018 26.6994 9.49141 27.709 10.0421 28.6726C11.6482 27.3419 15.5028 26.4241 19.9999 26.4241Z" fill="#BFE3F6"/>
  <path d="M19.9999 26.4698C24.497 26.4698 28.3517 27.3876 30.0036 28.6725C30.5543 27.7547 30.8755 26.6993 30.8755 25.6438C30.8755 21.3303 26.0113 17.338 19.9999 17.338C13.9885 17.338 9.12431 21.3303 9.12431 25.6438C9.12431 26.7452 9.44553 27.7547 9.99619 28.6725C11.6482 27.3876 15.5028 26.4698 19.9999 26.4698Z" fill="#C5E6F7"/>
  <path d="M19.9999 26.4698C24.497 26.4698 28.3517 27.3876 30.0036 28.6725C30.5543 27.7547 30.8755 26.7452 30.8755 25.6438C30.8755 21.3762 26.0113 17.3839 19.9999 17.3839C13.9885 17.3839 9.12431 21.3762 9.12431 25.6438C9.12431 26.6993 9.44553 27.7547 9.99619 28.6725C11.6482 27.3876 15.5028 26.4698 19.9999 26.4698Z" fill="#CAE8F8"/>
  <path d="M19.9996 26.516C24.4966 26.516 28.3513 27.4338 30.0033 28.7187C30.5539 27.8009 30.8752 26.7913 30.8752 25.7359C30.8752 21.4683 26.011 17.5218 20.0454 17.5218C14.034 17.5218 9.21573 21.4683 9.21573 25.7359C9.21573 26.7913 9.53695 27.8009 10.0876 28.7187C11.6478 27.4338 15.5025 26.516 19.9996 26.516Z" fill="#CFEAF9"/>
  <path d="M19.9999 26.5617C24.497 26.5617 28.3516 27.4795 29.9577 28.7185C30.5084 27.8007 30.8296 26.7911 30.8296 25.7357C30.8296 21.5139 25.9654 17.5675 19.9999 17.5675C14.0344 17.5675 9.17018 21.5139 9.17018 25.7357C9.17018 26.7911 9.49141 27.8007 10.0421 28.7185C11.6941 27.4336 15.5487 26.5617 19.9999 26.5617Z" fill="#D5ECFA"/>
  <path d="M19.9999 26.5617C24.497 26.5617 28.3057 27.4336 29.9577 28.7185C30.5084 27.8007 30.8296 26.8371 30.8296 25.7817C30.8296 21.6058 25.9654 17.7053 19.9999 17.7053C14.0344 17.7053 9.17018 21.6058 9.17018 25.7817C9.17018 26.8371 9.49141 27.8466 10.0421 28.7185C11.6941 27.4795 15.5487 26.5617 19.9999 26.5617Z" fill="#DAEFFA"/>
  <path d="M19.9999 26.6076C24.4511 26.6076 28.3057 27.4794 29.9577 28.7643C30.5084 27.8465 30.8296 26.8829 30.8296 25.8274C30.8296 21.6516 26.0113 17.7969 20.0457 17.7969C14.0802 17.7969 9.26192 21.6975 9.26192 25.8274C9.26192 26.8829 9.58313 27.8465 10.1338 28.7643C11.694 27.4794 15.5487 26.6076 19.9999 26.6076Z" fill="#DFF1FB"/>
  <path d="M19.9996 26.6535C24.4508 26.6535 28.3054 27.5254 29.9115 28.7644C30.4622 27.8925 30.7834 26.8829 30.7834 25.8734C30.7834 21.7434 25.9651 17.8888 19.9996 17.8888C14.034 17.8888 9.21573 21.7434 9.21573 25.8734C9.21573 26.9288 9.53695 27.8925 10.0417 28.7644C11.6937 27.5254 15.5484 26.6535 19.9996 26.6535Z" fill="#E4F3FC"/>
  <path d="M19.9996 26.6535C24.4508 26.6535 28.2595 27.5254 29.9115 28.7644C30.4622 27.8925 30.7834 26.9288 30.7834 25.8734C30.7834 21.7893 25.9651 17.9346 19.9996 17.9346C14.034 17.9346 9.21573 21.7434 9.21573 25.8734C9.21573 26.8829 9.53695 27.8466 10.0417 28.7644C11.7396 27.5254 15.5484 26.6535 19.9996 26.6535Z" fill="#E9F5FC"/>
  <path d="M19.9998 26.6994C24.451 26.6994 28.2598 27.5712 29.9117 28.8102C30.4624 27.9384 30.7836 26.9747 30.7836 25.9652C30.7836 21.8811 25.9653 18.1182 20.0457 18.1182C14.0802 18.1182 9.30774 21.927 9.30774 25.9652C9.30774 26.9747 9.58307 27.9384 10.1337 28.8102C11.7398 27.5712 15.5486 26.6994 19.9998 26.6994Z" fill="#EDF7FD"/>
  <path d="M19.9998 26.6994C24.451 26.6994 28.2598 27.5712 29.8659 28.7643C30.4166 27.8925 30.7378 26.9288 30.7378 25.9193C30.7378 21.8811 25.9195 18.1182 19.9999 18.1182C14.0802 18.1182 9.26192 21.8811 9.26192 25.9193C9.26192 26.9288 9.53724 27.8925 10.0879 28.7643C11.7399 27.5712 15.5486 26.6994 19.9998 26.6994Z" fill="#F2F9FD"/>
  <path d="M19.9999 26.7453C24.451 26.7453 28.2598 27.6172 29.8659 28.8103C30.4166 27.9384 30.7378 27.0206 30.7378 26.0111C30.7378 22.0188 25.9195 18.2559 19.9999 18.2559C14.0802 18.2559 9.26192 22.0188 9.26192 26.0111C9.26192 27.0206 9.53724 27.9384 10.0879 28.8103C11.7399 27.6172 15.5945 26.7453 19.9999 26.7453Z" fill="#F7FBFE"/>
  <path d="M19.9998 26.7912C24.451 26.7912 28.2139 27.6172 29.8659 28.8103C30.4166 27.9384 30.6918 27.0206 30.6918 26.011C30.6918 22.0646 25.8735 18.3018 19.9998 18.3018C14.0802 18.3018 9.30774 22.0187 9.30774 26.011C9.30774 27.0206 9.58307 27.9384 10.1337 28.8102C11.7857 27.6171 15.5945 26.7912 19.9998 26.7912Z" fill="#FBFDFF"/>
  <path d="M19.9998 26.7912C24.4051 26.7912 28.2139 27.6172 29.8659 28.8103C30.4166 27.9384 30.6918 27.0207 30.6918 26.0571C30.6918 22.1106 25.9194 18.4395 19.9998 18.4395C14.0802 18.4395 9.30774 22.1565 9.30774 26.0571C9.30774 27.0666 9.58307 27.9842 10.1337 28.8102C11.7857 27.663 15.5945 26.7912 19.9998 26.7912Z" fill="white"/>
  <path d="M19.9774 22.868C16.1228 22.868 12.4976 23.5104 9.5607 24.6117C11.3504 28.6041 15.3427 31.4033 20.0233 31.4033C24.6581 31.4033 28.6504 28.6041 30.44 24.6117C27.4573 23.5104 23.878 22.868 19.9774 22.868Z" fill="#007BC7"/>
</svg>