<svg xmlns="http://www.w3.org/2000/svg" width="40" height="40" viewBox="0 0 40 40" fill="none">
  <path d="M40 20C40 31.0457 31.0457 40 20 40C8.9543 40 0 31.0457 0 20C0 8.9543 8.9543 0 20 0C31.0457 0 40 8.9543 40 20Z" fill="#D3313D"/>
  <path fill-rule="evenodd" clip-rule="evenodd" d="M13.6368 20C14.1864 19.7825 14.6444 19.3015 14.6444 18.4886C14.6444 17.2862 13.5452 16.5649 12.2284 16.5649H8.15197C8.10617 16.5649 8.08327 16.5992 8.08327 16.6336V17.7214C8.08327 17.7557 8.11762 17.7901 8.15197 17.7901H11.9421C12.549 17.7901 12.9726 18.145 12.9726 18.5802C12.9726 19.0153 12.5604 19.3702 11.9421 19.3702H9.68634V18.5573C9.68634 18.5229 9.65199 18.4886 9.61764 18.4886H8.15197C8.11762 18.4886 8.08327 18.5229 8.08327 18.5573V23.3665C8.08327 23.4008 8.11762 23.4352 8.15197 23.4352H12.1711C13.6711 23.4352 14.7475 22.7711 14.7475 21.4313C14.7475 20.7672 14.3353 20.229 13.6368 20ZM12.0337 22.2329H9.70925V20.6184H12.0337C12.6635 20.6184 13.0872 20.9733 13.0872 21.4199C13.0872 21.8779 12.652 22.2329 12.0337 22.2329Z" fill="white"/>
  <path d="M30.4692 17.7901H31.0876C31.1334 17.7901 31.1563 17.7557 31.1563 17.7214V16.6336C31.1563 16.5992 31.1219 16.5649 31.0876 16.5649H30.2288C29.2326 16.5649 28.7059 16.8626 28.3967 17.5038L26.5188 21.8321C26.4043 22.0955 26.244 22.21 25.9234 22.21V16.6336C25.9234 16.5992 25.889 16.5649 25.8547 16.5649H24.4806C24.4463 16.5649 24.4119 16.5992 24.4119 16.6336V23.3092C24.4119 23.3779 24.4692 23.4352 24.5379 23.4352H26.0837C27.0799 23.4352 27.5379 23.1375 27.8356 22.4962L29.6906 18.2252C29.828 17.9275 30.0456 17.7901 30.4692 17.7901Z" fill="white"/>
  <path d="M29.5421 20.5153L31.9009 23.3551C31.9352 23.3894 31.9123 23.4352 31.8436 23.4352H30.1833C30.0688 23.4352 29.9772 23.4009 29.9085 23.3093L28.878 22.0039V21.981L29.5192 20.5153C29.5249 20.5096 29.5278 20.5067 29.5306 20.5067C29.5335 20.5067 29.5364 20.5096 29.5421 20.5153Z" fill="white"/>
  <path d="M17.3358 18.4885H15.9617C15.9159 18.4885 15.893 18.5229 15.893 18.5573V23.3665C15.893 23.4008 15.9274 23.4352 15.9617 23.4352H17.3358C17.3702 23.4352 17.4045 23.4008 17.4045 23.3665V18.5573C17.416 18.5114 17.3816 18.4885 17.3358 18.4885Z" fill="white"/>
  <path d="M21.6411 16.5649H23.0151C23.0495 16.5649 23.0838 16.5992 23.1067 16.6336V23.3092C23.1067 23.3779 23.0495 23.4352 22.9808 23.4352H21.435C20.4388 23.4352 19.9808 23.1375 19.683 22.4962L17.828 18.2252C17.6792 17.9275 17.4616 17.7901 17.0265 17.7901H15.9731C15.9387 17.7901 15.9044 17.7557 15.9044 17.7214V16.6336C15.9044 16.5992 15.9273 16.5649 15.9731 16.5649H17.267C18.2632 16.5649 18.8013 16.8626 19.0991 17.5038L20.9769 21.8321C21.08 22.084 21.2518 22.21 21.5724 22.21V16.6336C21.5724 16.5992 21.6067 16.5649 21.6411 16.5649Z" fill="white"/>
</svg>